<svg class="prefix__astro-icon" xmlns="http://www.w3.org/2000/svg" width="64" height="80" fill="none"><path d="M20.525 67.632c-3.596-3.279-4.646-10.169-3.147-15.16 2.598 3.147 6.197 4.144 9.925 4.706 5.756.869 11.41.544 16.756-2.08.612-.3 1.177-.7 1.846-1.105.501 1.452.632 2.918.457 4.41-.427 3.633-2.24 6.44-5.122 8.568-1.153.85-2.373 1.611-3.564 2.414-3.658 2.466-4.648 5.358-3.273 9.564.033.103.062.205.136.455-1.868-.834-3.232-2.047-4.272-3.644-1.098-1.684-1.62-3.548-1.647-5.564-.014-.982-.014-1.972-.146-2.939-.323-2.359-1.433-3.415-3.524-3.475-2.146-.063-3.844 1.26-4.294 3.345-.034.16-.084.318-.134.503l.003.002z" fill="#fff"/><path d="M20.525 67.632c-3.596-3.279-4.646-10.169-3.147-15.16 2.598 3.147 6.197 4.144 9.925 4.706 5.756.869 11.41.544 16.756-2.08.612-.3 1.177-.7 1.846-1.105.501 1.452.632 2.918.457 4.41-.427 3.633-2.24 6.44-5.122 8.568-1.153.85-2.373 1.611-3.564 2.414-3.658 2.466-4.648 5.358-3.273 9.564.033.103.062.205.136.455-1.868-.834-3.232-2.047-4.272-3.644-1.098-1.684-1.62-3.548-1.647-5.564-.014-.982-.014-1.972-.146-2.939-.323-2.359-1.433-3.415-3.524-3.475-2.146-.063-3.844 1.26-4.294 3.345-.034.16-.084.318-.134.503l.003.002z" fill="url(#prefix__paint0_linear_738_686)"/><path d="M0 51.64s10.649-5.175 21.327-5.175L29.38 21.61c.301-1.202 1.181-2.019 2.175-2.019.993 0 1.874.817 2.175 2.02l8.051 24.854c12.647 0 21.328 5.175 21.328 5.175L44.984 2.39C44.465.935 43.59 0 42.407 0H20.702c-1.181 0-2.022.936-2.577 2.39C18.086 2.485 0 51.64 0 51.64z" fill="#2a089c"/><defs><linearGradient id="prefix__paint0_linear_738_686" x1="31.554" y1="75.442" x2="39.746" y2="48.376" gradientUnits="userSpaceOnUse"><stop stop-color="#D83333"/><stop offset="1" stop-color="#F041FF"/></linearGradient></defs></svg>